<svg xmlns="http://www.w3.org/2000/svg" xmlns:xlink="http://www.w3.org/1999/xlink" width="500" zoomAndPan="magnify" viewBox="0 0 375 374.999991" height="500" preserveAspectRatio="xMidYMid meet" version="1.0"><defs><clipPath id="b623ac0e74"><path d="M 89 56 L 375 56 L 375 353.582031 L 89 353.582031 Z M 89 56 " clip-rule="nonzero"/></clipPath><clipPath id="d65ae6329a"><path d="M 0 21.332031 L 269 21.332031 L 269 353.582031 L 0 353.582031 Z M 0 21.332031 " clip-rule="nonzero"/></clipPath></defs><g clip-path="url(#b623ac0e74)"><path fill="#65b8a6" d="M 406.027344 56.636719 C 367.136719 75.449219 324.894531 99.941406 285.460938 127.710938 L 374.664062 127.710938 L 374.664062 250.382812 L 268.347656 250.382812 L 268.347656 356.695312 L 145.675781 356.695312 L 145.675781 290.453125 C 4.515625 596.0625 948.746094 513.839844 1263.136719 411.433594 C 976.820312 540.136719 52.847656 655.316406 90.550781 331.351562 C 106.898438 190.851562 350.429688 73.75 406.027344 56.636719 " fill-opacity="1" fill-rule="evenodd"/></g><g clip-path="url(#d65ae6329a)"><path fill="#2d6073" d="M 39.359375 127.710938 L 145.675781 127.710938 L 145.675781 21.390625 L 268.34375 21.390625 L 268.34375 93.121094 C 172.765625 131.066406 -74.09375 301.121094 63.074219 500.75 C -17.0625 433.71875 -30.710938 330.636719 39.359375 235.859375 Z M 39.359375 127.710938 " fill-opacity="1" fill-rule="evenodd"/></g></svg>